<?xml version="1.0" encoding="UTF-8" standalone="no"?>
<!-- Created with Inkscape (http://www.inkscape.org/) -->

<svg
   width="109.12138mm"
   height="110.62362mm"
   viewBox="0 0 109.12137 110.62362"
   version="1.1"
   id="svg1"
   xml:space="preserve"
   sodipodi:docname="favicon.svg"
   inkscape:version="1.3 (0e150ed6c4, 2023-07-21)"
   xmlns:inkscape="http://www.inkscape.org/namespaces/inkscape"
   xmlns:sodipodi="http://sodipodi.sourceforge.net/DTD/sodipodi-0.dtd"
   xmlns="http://www.w3.org/2000/svg"
   xmlns:svg="http://www.w3.org/2000/svg"><sodipodi:namedview
     id="namedview1"
     pagecolor="#ffffff"
     bordercolor="#000000"
     borderopacity="0.25"
     inkscape:showpageshadow="2"
     inkscape:pageopacity="0.0"
     inkscape:pagecheckerboard="0"
     inkscape:deskcolor="#d1d1d1"
     inkscape:document-units="mm"
     inkscape:zoom="0.26803444"
     inkscape:cx="600.66908"
     inkscape:cy="401.06786"
     inkscape:window-width="1920"
     inkscape:window-height="1009"
     inkscape:window-x="1912"
     inkscape:window-y="-8"
     inkscape:window-maximized="1"
     inkscape:current-layer="layer1" /><defs
     id="defs1" /><g
     inkscape:label="Capa 1"
     inkscape:groupmode="layer"
     id="layer1"
     transform="translate(-315.54154,-74.933997)"><path
       style="fill:#000000"
       d="m 365.41917,185.41475 c -10.61322,-0.80698 -22.48898,-5.74118 -30.46943,-12.65958 -2.69386,-2.33536 -7.67662,-8.08611 -9.95984,-11.49493 -2.34883,-3.50677 -5.23029,-9.25802 -6.38371,-12.74155 -2.21415,-6.68709 -3.48494,-17.31933 -2.93811,-24.58216 l 0.19738,-2.62158 7.57894,0.17807 c 6.71287,0.15772 9.586,0.35362 12.34143,0.84148 0.68424,0.12115 1.00365,-0.0568 2.31511,-1.28987 0.83674,-0.78673 1.52135,-1.57371 1.52135,-1.74884 0,-0.24361 -2.22214,-0.30102 -9.45885,-0.24438 -5.20237,0.0407 -10.17681,0.0327 -11.05432,-0.0178 l -1.59546,-0.0918 0.14025,-1.21891 0.14026,-1.21891 12.14299,-0.0688 12.14299,-0.0688 0.62315,-0.6724 c 0.34274,-0.36982 0.62316,-0.58828 0.62316,-0.48546 0,0.10281 0.24094,-0.0311 0.53542,-0.29762 0.29448,-0.2665 0.4433,-0.57384 0.33073,-0.68298 -0.11258,-0.10914 -5.88993,-0.22999 -12.83855,-0.26855 -12.06778,-0.067 -12.63385,-0.0919 -12.63385,-0.55715 0,-0.26787 0.17252,-0.89993 0.38337,-1.40458 l 0.38338,-0.91754 h 13.92448 13.92447 l 0.83955,-0.8599 0.83954,-0.85989 -14.35365,-0.0684 c -9.57822,-0.0457 -14.35364,-0.15862 -14.35364,-0.33952 0,-0.14911 0.29516,-0.85358 0.65592,-1.56549 0.64507,-1.27299 0.68116,-1.29758 2.18281,-1.48691 0.83979,-0.10588 7.68457,-0.1172 15.21061,-0.0251 l 13.68373,0.16738 0.7175,-0.61718 0.71751,-0.61717 -1.8755,-0.18481 c -1.03153,-0.10164 -3.38913,-0.16529 -5.23912,-0.14145 -2.36581,0.0305 -3.42165,-0.0505 -3.55922,-0.27312 -0.14646,-0.23698 -0.23059,-0.22531 -0.33488,0.0465 -0.0809,0.21089 -0.45661,0.34004 -0.89672,0.30826 -0.41659,-0.0301 -1.03235,-0.0644 -1.36836,-0.0762 -0.33601,-0.0118 -0.54961,-0.12071 -0.47466,-0.24198 0.075,-0.12127 -0.0305,-0.22049 -0.23427,-0.22049 -0.2038,0 -0.34739,0.11265 -0.31909,0.25033 0.0303,0.14729 -1.36438,0.24929 -3.38814,0.24779 -6.08496,-0.005 -7.02289,-0.16744 -1.85208,-0.32173 4.80619,-0.14341 4.6754,-0.15252 -2.97656,-0.20729 -5.80231,-0.0415 -8.00365,-0.14062 -8.00365,-0.36028 0,-0.16664 0.32742,-0.82127 0.72761,-1.45473 l 0.7276,-1.15175 11.31094,-0.0336 c 6.22101,-0.0184 11.66812,-0.0633 12.10468,-0.0997 0.43657,-0.0364 2.64097,-0.081 4.89868,-0.0992 l 4.10493,-0.0331 0.9883,-0.918883 0.9883,-0.918882 -16.33802,-0.0072 c -8.98591,-0.0039 -16.33742,-0.09646 -16.33668,-0.205597 7.3e-4,-0.10914 0.45216,-0.79375 1.00318,-1.521354 l 1.00184,-1.322916 16.63499,-0.07345 16.63499,-0.07345 0.65817,-0.658167 c 0.36199,-0.361992 0.59217,-0.724161 0.51152,-0.804819 -0.0807,-0.08066 -7.52836,-0.168152 -16.55045,-0.194429 -18.27652,-0.05323 -16.95564,0.114911 -14.88222,-1.894456 0.9901,-0.95952 1.24428,-1.066805 2.86521,-1.209353 0.9783,-0.08603 8.68021,-0.186191 17.11537,-0.222571 8.43515,-0.03638 15.49497,-0.154747 15.68847,-0.263038 0.19351,-0.108291 0.97155,-0.107834 1.72898,0.001 1.3505,0.194076 7.38299,0.127634 12.35736,-0.136103 4.43638,-0.235213 22.25837,-0.106837 23.15104,0.166763 0.29104,0.0892 1.04231,0.171298 1.66948,0.182432 0.99734,0.01771 1.32081,0.190939 2.57969,1.38154 0.79165,0.748713 1.43937,1.463088 1.43937,1.5875 0,0.124412 -8.30461,0.228027 -18.45469,0.230255 -11.45784,0.0025 -18.60515,0.101293 -18.85156,0.260532 -0.28838,0.18637 -0.3022,0.257588 -0.0505,0.260532 0.19049,0.0022 0.27276,0.123114 0.18282,0.268635 -0.0899,0.14552 -0.008,0.273693 0.18283,0.284827 0.19049,0.01113 0.58447,0.09375 0.87551,0.183582 0.29104,0.08984 8.90466,0.229555 19.14137,0.310486 l 18.6122,0.147146 0.64971,0.79375 c 0.35734,0.436563 0.88988,1.121172 1.18342,1.521354 l 0.5337,0.727604 h -18.80343 c -10.34189,0 -18.80343,0.06451 -18.80343,0.143355 0,0.244741 0.89945,1.094395 1.45521,1.374645 0.34023,0.17156 7.06354,0.2687 18.8309,0.27207 10.06595,0.003 18.43257,0.0861 18.59249,0.18494 0.27308,0.16878 1.85932,2.76495 1.86478,3.05208 0.001,0.0728 -8.05571,0.10086 -17.90467,0.0624 -9.84896,-0.0384 -17.81631,0.0211 -17.70523,0.13229 0.11108,0.11117 0.99579,0.23364 1.96602,0.27215 2.26404,0.0899 3.74842,0.3272 3.74842,0.59933 0,0.11801 0.74414,0.28316 1.65364,0.36699 1.55972,0.14376 16.40558,0.38316 25.28227,0.40768 l 4.04945,0.0112 0.6469,1.46275 c 0.3558,0.80452 0.6469,1.59165 0.6469,1.74919 0,0.20259 -3.89211,0.26753 -13.29531,0.22183 -15.75568,-0.0766 -15.62789,-0.079 -15.4011,0.288 0.0959,0.1552 0.24115,0.21544 0.32273,0.13386 0.0816,-0.0816 0.28134,0.11886 0.44391,0.44542 0.29533,0.59322 0.30356,0.59388 9.41633,0.75436 5.0164,0.0883 11.47062,0.17764 14.3427,0.19844 l 5.22197,0.0378 0.36892,0.88294 c 0.2029,0.48562 0.45065,1.14046 0.55055,1.45521 l 0.18163,0.57226 h -13.11471 c -14.1774,0 -13.89418,-0.0314 -12.3871,1.37255 l 0.72761,0.67781 12.67301,0.15168 c 6.97015,0.0834 12.7733,0.25199 12.89589,0.37458 0.12259,0.12259 0.29745,0.76687 0.38858,1.43174 l 0.1657,1.20885 -1.8168,0.17743 c -0.99924,0.0976 -6.0818,0.16254 -11.29458,0.14435 -5.21278,-0.0182 -9.5581,0.0472 -9.65628,0.14542 -0.0982,0.0982 0.47589,0.77781 1.2757,1.51031 l 1.45419,1.33181 1.71979,-0.1582 c 3.69258,-0.33966 9.36309,-0.66756 14.45978,-0.83614 l 5.33166,-0.17634 0.20433,0.62155 c 0.40286,1.22546 0.22104,12.6132 -0.25495,15.96739 -1.19872,8.44723 -4.11044,16.30727 -8.58805,23.18303 -2.05645,3.15786 -3.98081,5.44229 -7.48442,8.88484 -4.90187,4.81644 -8.1929,7.23568 -13.35614,9.81812 -8.90126,4.45204 -19.63729,6.59577 -29.33824,5.85815 z m 14.02291,-3.13009 c 4.92403,-0.84591 9.91689,-2.29196 10.35366,-2.99866 0.20443,-0.33077 -2.90986,-0.19683 -10.22137,0.43961 -6.31967,0.5501 -12.06591,0.51141 -19.17098,-0.12906 -3.29284,-0.29683 -6.96417,-0.50483 -8.15852,-0.46222 l -2.17154,0.0775 1.55311,0.73752 c 2.31434,1.09898 6.38534,2.03859 12.73439,2.93915 0.43656,0.0619 3.29406,0.0741 6.35,0.0271 4.08293,-0.0628 6.39815,-0.2301 8.73125,-0.63091 z m -0.41055,-4.6674 c 2.93835,-0.22127 7.53632,-0.4398 10.2177,-0.48562 l 4.87523,-0.0833 2.00937,-1.03369 c 1.10515,-0.56853 2.07608,-1.14162 2.15761,-1.27354 0.0883,-0.1429 -6.79355,-0.19721 -17.02347,-0.13435 -9.44445,0.058 -21.33891,0.0691 -26.43214,0.0246 -13.30612,-0.11627 -13.21727,-0.11838 -12.86547,0.30552 0.1629,0.19629 1.05158,0.7403 1.97485,1.20893 1.53269,0.77795 1.94112,0.86211 4.69714,0.96782 6.3228,0.24253 15.19388,0.70973 15.29956,0.80576 0.28422,0.25827 10.31484,0.0574 15.08962,-0.30213 z m 15.85703,-4.79383 7.24439,-0.1666 1.88141,-1.61811 1.8814,-1.61811 -2.51121,-0.0837 c -3.47235,-0.11568 -6.73801,0.33701 -12.24345,1.69724 -4.30167,1.06281 -9.33309,1.8156 -7.99485,1.19617 1.08883,-0.50398 10.66853,-3.46668 12.83229,-3.96861 2.43761,-0.56547 7.27975,-1.08774 10.09811,-1.08918 l 1.76374,-9.1e-4 1.47741,-1.63259 c 0.81257,-0.89792 1.4774,-1.73136 1.4774,-1.85208 0,-0.28057 -0.52401,-0.27397 -4.22039,0.0532 -4.50739,0.39893 -7.69793,1.13571 -14.31582,3.30591 -8.90057,2.91875 -12.93992,3.46101 -23.92941,3.21236 -9.33999,-0.21132 -14.0105,-0.94801 -20.59412,-3.24836 -1.91563,-0.66934 -4.01874,-1.39093 -4.67359,-1.60354 -1.91437,-0.62157 -6.02728,-1.35274 -8.59895,-1.52868 -1.30969,-0.0896 -2.88727,-0.22588 -3.50573,-0.30285 -0.76102,-0.0947 -1.12448,-0.04 -1.12448,0.16912 0,0.37368 1.95958,2.87367 2.5917,3.30642 0.25993,0.17795 2.13239,0.38532 4.41976,0.48946 5.60463,0.25517 6.67483,0.46914 13.36145,2.67134 4.5724,1.50589 5.70767,1.96326 4.8948,1.97201 -1.52728,0.0164 -3.9819,-0.41641 -8.20209,-1.44631 -2.03729,-0.49718 -4.5376,-0.9676 -5.55625,-1.04537 -3.70501,-0.28289 -6.2223,-0.3454 -6.33848,-0.15741 -0.0653,0.10573 0.56636,0.87025 1.40379,1.69893 l 1.52259,1.50671 13.06389,0.12909 c 7.18514,0.071 13.13209,0.20114 13.21543,0.28919 0.15246,0.16108 17.21343,-0.0251 30.67926,-0.33476 z m -13.19752,-4.70876 c 3.50198,-0.60815 5.80373,-1.2293 10.84792,-2.92739 6.87265,-2.31363 10.39908,-3.11447 15.08124,-3.42489 4.84428,-0.32117 4.64732,-0.25362 5.96716,-2.04649 0.64713,-0.87906 1.17659,-1.71848 1.17659,-1.86537 0,-0.17401 -0.99115,-0.2061 -2.84427,-0.0921 -5.71154,0.35144 -8.74487,1.01178 -14.54543,3.16647 -12.17011,4.52074 -20.7519,5.9722 -30.89675,5.22564 -8.03759,-0.59149 -10.84787,-1.19982 -20.90208,-4.52458 -3.92907,-1.29927 -8.33438,-2.61172 -9.78959,-2.91655 -2.934,-0.61461 -9.92187,-1.04697 -9.92187,-0.6139 0,0.14455 0.47365,0.99566 1.05256,1.89134 l 1.05257,1.62852 1.52712,2.2e-4 c 5.21123,7.6e-4 9.95309,0.93471 17.66671,3.47962 7.42685,2.4503 12.20699,3.36676 18.9177,3.62694 5.57902,0.21631 12.39373,-0.0489 15.61042,-0.60751 z m -2.26262,-3.87003 c 3.38501,-0.43039 9.78451,-2.11213 14.0639,-3.69588 10.3932,-3.84641 12.6157,-4.38379 20.23312,-4.89214 l 2.53337,-0.16907 0.84007,-1.70358 c 0.46204,-0.93697 0.84007,-1.77773 0.84007,-1.86835 0,-0.21315 -5.93153,0.12255 -8.33437,0.47169 -4.06015,0.58995 -8.59236,2.01036 -14.02292,4.39484 -4.74378,2.08292 -10.49306,3.80123 -15.88636,4.74802 -3.8013,0.66731 -14.22429,0.66129 -18.11259,-0.0105 -5.74226,-0.99205 -10.17584,-2.30395 -17.59899,-5.20755 -6.60165,-2.58226 -9.16845,-3.33088 -13.06301,-3.80985 -3.83792,-0.47201 -8.49633,-0.67164 -8.49633,-0.3641 0,0.47464 1.61926,3.41936 1.92815,3.50645 0.17644,0.0498 2.18868,0.21994 4.47163,0.37821 5.58444,0.38715 8.59439,1.05897 15.07101,3.36383 9.50444,3.3824 13.37542,4.39625 19.14275,5.01368 3.88432,0.41584 12.54196,0.33358 16.3905,-0.15574 z m -1.04467,-4.0778 c 5.89334,-0.82787 11.86816,-2.72935 18.93516,-6.02609 5.37691,-2.50832 10.46098,-3.76138 17.0756,-4.2086 l 4.52534,-0.30595 0.59017,-1.83242 c 0.32459,-1.00783 0.55037,-1.87009 0.50174,-1.91612 -0.21705,-0.20545 -7.79792,0.45572 -10.63772,0.92777 -4.20718,0.69935 -7.7011,1.91069 -13.61701,4.72102 -6.94674,3.30002 -11.00301,4.70012 -16.71182,5.76838 -3.88599,0.72716 -12.76569,0.65364 -17.28005,-0.14308 -6.21541,-1.09692 -9.58903,-2.21417 -16.84173,-5.57751 -8.11685,-3.76409 -12.81189,-4.93358 -21.90374,-5.45604 -1.63711,-0.0941 -2.97629,-0.0687 -2.97596,0.0563 3.4e-4,0.12504 0.27914,1.00126 0.61956,1.94714 l 0.61895,1.7198 4.52412,0.31177 c 7.4974,0.51668 10.93367,1.34916 18.31385,4.43676 13.2845,5.55774 23.06611,7.14984 34.26354,5.57686 z m 1.05833,-4.62719 c 4.49384,-0.89832 8.77202,-2.4514 14.5527,-5.28294 2.91075,-1.42578 6.15972,-2.90522 7.21992,-3.28766 4.42844,-1.59742 10.09115,-2.64096 16.26635,-2.9976 1.56716,-0.0905 3.02031,-0.29507 3.22921,-0.45458 0.2089,-0.1595 0.4626,-0.93419 0.56377,-1.72152 l 0.18394,-1.43151 -3.37812,0.1806 c -10.34092,0.55282 -15.77519,1.9726 -24.95307,6.51935 -6.13661,3.04009 -10.341,4.62304 -14.87532,5.60056 -2.32672,0.5016 -3.59496,0.60001 -7.80521,0.60562 -8.28328,0.011 -12.69042,-1.15708 -22.88646,-6.06611 -7.74915,-3.73094 -11.21463,-4.86584 -17.72708,-5.80539 -3.00023,-0.43285 -10.82656,-1.05929 -11.00497,-0.88087 -0.06,0.06 0.0453,0.87239 0.23416,1.80527 l 0.34329,1.69614 3.95699,0.30436 c 9.55904,0.73526 14.44455,1.94617 21.55178,5.34178 7.49113,3.57903 13.93108,5.69486 19.44687,6.38923 3.38198,0.42575 11.81662,0.13787 15.08125,-0.51473 z m -1.19062,-4.60577 c 4.26579,-0.99871 6.93354,-2.05299 13.72476,-5.42396 6.72809,-3.33963 10.20069,-4.6343 15.24711,-5.68452 3.41498,-0.71069 10.19465,-1.49333 12.93614,-1.49333 1.91422,0 2.00248,-0.1075 2.0092,-2.44739 l 0.004,-1.25678 -2.05052,0.003 c -1.12779,0.001 -3.59924,0.17559 -5.4921,0.38709 -8.8359,0.98727 -13.87395,2.53911 -22.75508,7.00911 -7.67121,3.86103 -9.27101,4.53716 -13.27318,5.60965 -2.94123,0.78818 -3.41255,0.8395 -7.89058,0.85924 -7.4956,0.0331 -10.44006,-0.78984 -20.76979,-5.80452 -3.71078,-1.80144 -7.6496,-3.62904 -8.75292,-4.06133 -5.47275,-2.14426 -14.38187,-3.7334 -20.94656,-3.7363 l -2.05052,-9e-4 0.004,1.25677 c 0.007,2.42333 -0.0915,2.34921 3.39085,2.55261 11.24315,0.65672 17.4437,2.27388 27.05765,7.05691 10.04678,4.99835 14.42997,6.14195 22.72913,5.93017 3.14443,-0.0802 4.74907,-0.25637 6.87917,-0.75507 z M 376.0025,146.415 c 3.52447,-0.66929 7.19467,-2.01675 11.50937,-4.22548 11.27044,-5.76945 14.73983,-7.07269 22.225,-8.34862 3.17295,-0.54087 10.15316,-1.32966 11.76643,-1.32966 h 0.93357 v -1.5875 -1.5875 l -0.8599,0.001 c -2.09659,0.003 -8.56849,0.59736 -11.77618,1.08217 -7.69905,1.16364 -13.57978,3.31593 -22.02433,8.06068 -9.98147,5.6083 -18.46683,6.6861 -27.51667,3.49514 -1.23693,-0.43614 -5.16599,-2.26042 -8.73125,-4.05396 -6.96312,-3.50286 -9.34006,-4.53201 -13.14532,-5.69156 -5.15853,-1.57192 -11.55621,-2.53641 -17.67864,-2.66517 l -2.91041,-0.0612 0.006,1.48777 c 0.003,0.81827 0.0935,1.57541 0.20066,1.68253 0.10712,0.10711 1.65227,0.28755 3.43368,0.40098 11.80647,0.75173 17.65532,2.35399 29.30038,8.02668 8.52298,4.15181 10.76846,4.92752 16.80104,5.80396 1.41222,0.20518 6.29246,-0.0774 8.46667,-0.49033 z m 0.48045,-5.13736 c 3.34387,-0.89191 6.60675,-2.32042 11.90224,-5.21087 10.04865,-5.48487 16.5057,-7.44473 27.4371,-8.32781 2.11005,-0.17045 4.48254,-0.38681 5.2722,-0.4808 1.5852,-0.18867 1.48204,0.0104 1.3776,-2.65826 l -0.0352,-0.89989 -4.14477,0.18491 c -12.32899,0.55001 -17.68922,2.14844 -30.61276,9.12878 -2.92976,1.58244 -6.04122,3.17545 -6.91434,3.54002 -8.41964,3.51561 -14.60024,3.18327 -23.41563,-1.25909 -1.52796,-0.76999 -5.69515,-2.87454 -9.26041,-4.67678 -3.56526,-1.80223 -7.61339,-3.65468 -8.99584,-4.11655 -4.71355,-1.57477 -10.06209,-2.41421 -18.32239,-2.87567 l -3.10885,-0.17367 v 2.09774 2.09774 l 5.22552,0.31727 c 11.79668,0.71623 16.73236,2.10082 28.37656,7.96039 10.53729,5.30256 13.39724,6.17972 19.57916,6.00505 2.51188,-0.071 4.18556,-0.26462 5.63983,-0.65251 z m -1.73693,-4.93958 c 2.94415,-0.676 6.27892,-2.14651 13.09459,-5.77422 6.036,-3.21273 10.96489,-5.6068 12.5697,-6.10539 0.32742,-0.10172 0.59531,-0.30308 0.59531,-0.44745 0,-0.31837 -2.93389,-3.86402 -6.32127,-7.63934 -4.01109,-4.47048 -5.0106,-5.63461 -7.74786,-9.02392 l -1.19792,-1.48329 -0.29843,0.82183 c -0.16413,0.45201 -0.71763,1.4573 -1.23001,2.23399 -0.51237,0.77669 -0.93159,1.56727 -0.93159,1.75686 0,0.18959 1.13109,1.737 2.51354,3.4387 1.38245,1.7017 2.51354,3.1367 2.51354,3.18889 0,0.36066 -1.2881,-0.28347 -2.20475,-1.10252 -2.62489,-2.34539 -5.99733,-5.61187 -5.99733,-5.80889 0,-0.1178 0.37867,-0.60486 0.84149,-1.08236 l 0.84148,-0.8682 -0.89268,-1.12877 c -1.14772,-1.45126 -3.95554,-4.67745 -5.74505,-6.60106 l -1.3987,-1.503528 -0.99046,1.216878 c -3.85154,4.73201 -8.47104,9.58804 -9.12639,9.59368 -0.43057,0.004 -0.14958,-0.73063 0.85989,-2.24725 0.58116,-0.87313 1.05703,-1.73027 1.05749,-1.90477 4.7e-4,-0.17449 -0.42321,-0.6407 -0.94149,-1.03602 l -0.94234,-0.71876 -0.60676,0.63915 c -0.33372,0.35153 -2.61222,2.96087 -5.06335,5.79852 -2.45113,2.83766 -4.99849,5.74967 -5.6608,6.47113 -3.59087,3.91156 -5.19363,5.5517 -5.37139,5.49661 -0.10914,-0.0338 -0.19844,0.0441 -0.19844,0.17307 0,0.129 -0.35719,0.28697 -0.79375,0.35105 -0.43656,0.0641 -0.79375,0.0611 -0.79375,-0.007 0,-0.1869 2.83939,-3.62483 4.63021,-5.60626 4.95152,-5.47853 8.37346,-9.32841 9.64189,-10.84768 3.24167,-3.88272 3.9751,-4.44411 4.63212,-3.54557 0.17019,0.23274 0.83617,0.51949 1.47996,0.63722 l 1.17053,0.21404 2.58104,-2.53581 c 1.41957,-1.394701 2.6517,-2.758464 2.73807,-3.030587 0.11267,-0.355019 -0.27881,-0.985229 -1.386,-2.231183 -0.84867,-0.955027 -1.90022,-2.195277 -2.33678,-2.756111 -0.43656,-0.560833 -0.87579,-1.024152 -0.97607,-1.029596 -0.16776,-0.0091 -1.43398,1.364172 -9.63954,10.454667 -2.76854,3.0671 -6.34082,6.96939 -14.73579,16.09708 -2.15608,2.34427 -4.02789,4.45645 -4.15958,4.69372 -0.20079,0.36179 0.0903,0.54787 1.80349,1.15299 2.3248,0.82113 4.83155,2.04193 11.43562,5.5692 5.29676,2.82902 9.5915,4.90178 11.50937,5.55474 3.39344,1.15532 7.54649,1.34523 11.17894,0.51119 z m -21.62998,-31.97409 c 0,-0.0558 -0.23829,-0.16374 -0.52953,-0.23991 -0.29124,-0.0762 -0.46281,-0.0305 -0.38126,0.10144 0.14241,0.23043 0.91079,0.34725 0.91079,0.13847 z m -2.04548,-0.3367 c -0.17914,-0.0725 -0.53632,-0.0769 -0.79375,-0.01 -0.25744,0.0671 -0.11087,0.12638 0.32569,0.13177 0.43656,0.005 0.64719,-0.0495 0.46806,-0.12197 z m 36.3917,0.52198 c 0.191,-0.0764 0.4192,-0.067 0.50712,0.0209 0.0879,0.0879 -0.0684,0.15045 -0.34726,0.13896 -0.30823,-0.0127 -0.37092,-0.0754 -0.15986,-0.15985 z m -27.5548,-15.629453 c -14.27937,-0.03841 -25.05306,-0.167678 -25.00312,-0.300008 0.0483,-0.127888 0.81212,-0.835453 1.69748,-1.572367 l 1.60973,-1.339843 4.07881,-0.154226 c 2.24334,-0.08482 12.59177,-0.17173 22.99651,-0.193124 10.40474,-0.02139 18.29263,-0.08348 17.52865,-0.137978 -0.76399,-0.0545 -1.38919,-0.182156 -1.38935,-0.283691 -1.5e-4,-0.101536 2.35133,-0.136613 5.22552,-0.07795 3.07309,0.06272 4.84433,0.184617 4.29977,0.295899 -0.57971,0.118462 0.50879,0.215196 2.91041,0.258648 6.90047,0.124849 7.45058,0.219713 9.14856,1.577644 2.85721,2.285003 3.36464,2.153929 -8.01024,2.069083 -5.50102,-0.04103 -21.29275,-0.104972 -35.09273,-0.142089 z m 15.38397,-3.949713 c 0.191,-0.07643 0.4192,-0.06703 0.50712,0.02089 0.0879,0.08792 -0.0683,0.150452 -0.34727,0.138964 -0.30822,-0.0127 -0.37092,-0.07539 -0.15985,-0.159852 z m 3.175,0 c 0.191,-0.07643 0.4192,-0.06703 0.50712,0.02089 0.0879,0.08792 -0.0684,0.150452 -0.34727,0.138964 -0.30822,-0.0127 -0.37092,-0.07539 -0.15985,-0.159852 z m 1.05833,0 c 0.191,-0.07643 0.4192,-0.06703 0.50712,0.02089 0.0879,0.08792 -0.0684,0.150452 -0.34726,0.138964 -0.30823,-0.0127 -0.37092,-0.07539 -0.15986,-0.159852 z m 1.05834,0 c 0.19099,-0.07643 0.4192,-0.06703 0.50711,0.02089 0.0879,0.08792 -0.0684,0.150452 -0.34726,0.138964 -0.30823,-0.0127 -0.37092,-0.07539 -0.15985,-0.159852 z m -38.84414,-1.412587 c 0,-0.773527 6.50967,-4.096199 11.11838,-5.675058 13.69967,-4.693249 26.75432,-3.794882 40.34307,2.776242 2.0373,0.985175 4.06136,2.096995 4.49792,2.470712 l 0.79375,0.679484 -28.37656,0.0095 c -19.15519,0.0064 -28.37656,-0.07836 -28.37656,-0.260895 z"
       id="path17" /></g></svg>
